Coordinates
version=1
nRows=19
nColumns=36
inDegrees=yes

Units are S.I. units (second, meters, Newtons, ...)
If the header above contains a line with 'inDegrees', this indicates whether rotational values are in degrees (yes) or radians (no).

endheader
time	pelvis_tilt	pelvis_list	pelvis_rotation	pelvis_tx	pelvis_ty	pelvis_tz	hip_flexion_r	hip_adduction_r	hip_rotation_r	knee_angle_r	knee_angle_r_beta	ankle_angle_r	subtalar_angle_r	mtp_angle_r	hip_flexion_l	hip_adduction_l	hip_rotation_l	knee_angle_l	knee_angle_l_beta	ankle_angle_l	subtalar_angle_l	mtp_angle_l	lumbar_extension	lumbar_bending	lumbar_rotation	arm_flex_r	arm_add_r	arm_rot_r	elbow_flex_r	pro_sup_r	arm_flex_l	arm_add_l	arm_rot_l	elbow_flex_l	pro_sup_l
     10.28000000	     12.19848541	     -2.59486476	     -0.02195462	     -0.50532567	      0.58097258	     -0.61507901	     74.56236295	     -3.87652851	      3.56066973	     99.31679542	      1.73340508	     14.48887257	     -8.48150947	     -7.49999987	     74.56675016	     -1.87649562	      5.34094098	    102.94480699	      1.79672583	     14.46904754	    -14.59800588	     -7.49999987	    -42.35498319	      0.80721136	     -3.42692766	     12.24265923	    -18.05681884	      7.50036557	    133.52660745	    104.99267686	     14.03312656	    -16.77482082	      9.09629241	    135.92128732	     94.22634151
     10.29000000	     12.67807502	     -2.62737545	      0.00506084	     -0.50619521	      0.58062397	     -0.61501144	     74.17873190	     -3.82783284	      3.55597155	     99.38544498	      1.73460324	     14.37538051	     -8.47109089	     -7.49999987	     74.19255868	     -1.84493801	      5.41662654	    103.04250844	      1.79843104	     14.42089791	    -14.63560606	     -7.49999987	    -42.24447216	      0.76644795	     -3.46746062	     11.50350006	    -17.87908272	      7.50164050	    133.57850688	    105.01879335	     13.26059660	    -16.66824825	      9.12613785	    135.88255880	     94.24848525
     10.30000000	     13.43751209	     -2.63172967	      0.10351835	     -0.50728163	      0.58084747	     -0.61504735	     73.45863110	     -3.85830746	      3.53447010	     99.43107747	      1.73539968	     14.10310230	     -8.58175443	     -7.49999987	     73.47457074	     -1.77700464	      5.42314716	    103.07785319	      1.79904792	     14.32748939	    -14.81768378	     -7.49999987	    -42.55663104	      0.75310722	     -3.53670851	     10.77815228	    -17.45206853	      6.88754808	    133.94255147	    105.10774873	     12.55927216	    -16.43223916	      8.65195271	    136.07350432	     94.38388285
     10.31000000	     14.02605868	     -2.54044881	      0.02672245	     -0.50792613	      0.58095791	     -0.61469870	     72.95983229	     -3.71870856	      3.68652171	     99.52361369	      1.73701474	     13.90480573	     -8.66683096	     -7.49999987	     72.89324042	     -1.87303551	      5.30802421	    103.14837928	      1.80027884	     14.36061091	    -14.68948888	     -7.49999987	    -42.59057753	      0.52292714	     -3.54917255	      9.92706449	    -17.07887537	      6.63742457	    134.32412837	    103.07051106	     11.77568269	    -16.24226808	      8.52351171	    136.33662266	     92.73696797
     10.32000000	     14.58729093	     -2.46681998	     -0.12648773	     -0.50838247	      0.58133387	     -0.61426421	     72.43939326	     -3.53148646	      3.80831734	     99.57932709	      1.73798712	     13.83065217	     -8.76791735	     -7.49999987	     72.28875660	     -2.02574156	      5.22359546	    103.20699260	      1.80130183	     14.28578936	    -14.77184716	     -7.49999987	    -42.53336032	      0.26600983	     -3.49292359	      9.19089843	    -16.69476247	      6.57090039	    134.31592016	    102.97325180	     10.99845855	    -16.00388055	      8.44580456	    136.23414249	     92.49975487
     10.33000000	     15.32385975	     -2.31053608	     -0.31780292	     -0.50919809	      0.58216932	     -0.61374295	     71.69713686	     -3.28684699	      4.07267118	     99.57339428	      1.73788358	     13.82878257	     -9.06291650	     -7.49999987	     71.42359184	     -2.20682956	      4.99112092	    103.16508330	      1.80057038	     14.35499917	    -14.92567268	     -7.49999987	    -42.73888752	     -0.10268141	     -3.36622893	      8.47477815	    -16.28920948	      6.12566812	    134.38635997	    103.11245207	     10.44563715	    -15.74564817	      8.14118313	    135.97181216	     92.41034481
     10.34000000	     15.72795600	     -2.34542029	     -0.25985338	     -0.50993034	      0.58233021	     -0.61361468	     71.30617800	     -3.24527656	      4.04774778	     99.58920274	      1.73815949	     13.69167603	     -9.09120712	     -7.49999987	     71.06656581	     -2.18996536	      5.05734425	    103.18071789	      1.80084325	     14.31030211	    -14.84598669	     -7.49999987	    -42.58506396	     -0.09661881	     -3.33695863	      7.74879057	    -16.01178293	      6.04867483	    134.53014098	    102.34988874	      9.72589788	    -15.56980140	      8.12289076	    135.89926983	     91.77400618
     10.35000000	     16.22680123	     -2.45947704	     -0.20376400	     -0.51074957	      0.58281586	     -0.61338424	     70.75584155	     -3.12708846	      3.93459558	     99.53509158	      1.73721507	     13.43858109	     -9.59036420	     -7.49999987	     70.56730757	     -2.22687473	      5.20771285	    103.17650974	      1.80076981	     14.14560694	    -15.02992262	     -7.49999987	    -42.54018749	     -0.07392755	     -2.89773568	      6.75255041	    -15.67385381	      5.34506127	    134.72762119	    103.93732309	      9.46411916	    -15.25277526	      8.40263475	    135.24093033	     92.86409967
     10.36000000	     16.51876397	     -2.43020223	     -0.18674671	     -0.51147844	      0.58297524	     -0.61324047	     70.48144601	     -3.08644639	      3.98722218	     99.51833501	      1.73692261	     13.37232108	     -9.59232863	     -7.49999987	     70.29165924	     -2.22312823	      5.16461566	    103.13236095	      1.79999926	     14.13746243	    -14.95523276	     -7.49999987	    -42.34278524	     -0.13755336	     -2.90474973	      6.12235580	    -15.41375189	      5.29558929	    134.94137293	    103.12419101	      8.78553949	    -15.07851319	      8.28543536	    135.33322756	     92.18417897
     10.37000000	     16.87838660	     -2.33046094	     -0.16083336	     -0.51228153	      0.58326675	     -0.61311569	     70.13926429	     -3.07022757	      4.11409519	     99.51098746	      1.73679437	     13.32577461	     -9.78317995	     -7.49999987	     69.89980586	     -2.15637449	      5.07350420	    103.04600479	      1.79849206	     13.96743370	    -15.19244349	     -7.49999987	    -42.20057956	     -0.28573841	     -2.71908880	      5.35135937	    -15.07758691	      4.70483961	    134.91547059	    106.37295958	      8.44663972	    -14.80140256	      8.34950278	    134.72234628	     94.72629968
     10.38000000	     17.09883040	     -2.29992314	     -0.11799126	     -0.51298513	      0.58328803	     -0.61309505	     69.94762334	     -3.06813650	      4.15089079	     99.49510304	      1.73651714	     13.21773860	     -9.75320154	     -7.49999987	     69.72222427	     -2.09608829	      5.07693462	    103.03843091	      1.79835988	     13.97280156	    -15.04740009	     -7.49999987	    -41.93452348	     -0.29565454	     -2.75530834	      4.81077514	    -14.86718205	      4.76753552	    135.13357707	    105.26722781	      7.81701470	    -14.63953797	      8.30599073	    134.77312909	     93.88954598
     10.39000000	     17.30752286	     -2.26521236	     -0.07277625	     -0.51363633	      0.58337442	     -0.61304318	     69.75345885	     -3.05796577	      4.19761174	     99.48509348	      1.73634244	     13.11695272	     -9.74605403	     -7.49999987	     69.53557894	     -2.03043591	      5.09150409	    103.01442124	      1.79794083	     13.96846428	    -14.93986676	     -7.49999987	    -41.66880556	     -0.30973363	     -2.76979218	      4.31037166	    -14.65556856	      4.82186157	    135.31251993	    104.22458859	      7.20549605	    -14.48393690	      8.29677637	    134.80432901	     93.10662324
     10.40000000	     17.49751030	     -2.22306942	     -0.04548498	     -0.51438786	      0.58346596	     -0.61308124	     69.59580967	     -3.05727999	      4.25799926	     99.45211933	      1.73576693	     13.03864544	     -9.79151860	     -7.49999987	     69.35322605	     -1.96299204	      5.06598355	    102.95360184	      1.79687933	     13.95140940	    -14.93253925	     -7.49999987	    -41.48583541	     -0.34153916	     -2.78133150	      3.87796322	    -14.47818979	      4.85365355	    135.55831519	    103.48220037	      6.67570819	    -14.32537201	      8.31167243	    134.92426947	     92.46673625
     10.41000000	     17.70487922	     -2.18555290	      0.01521967	     -0.51507778	      0.58356473	     -0.61318110	     69.40442136	     -3.08507953	      4.30886957	     99.43058679	      1.73539112	     12.97264661	     -9.84589779	     -7.49999987	     69.15486892	     -1.85674889	      5.06890263	    102.90889757	      1.79609909	     13.91621509	    -14.93582140	     -7.49999987	    -41.30426340	     -0.34453883	     -2.80034087	      3.45747384	    -14.38319580	      4.89380293	    135.78611566	    102.76587205	      6.17820898	    -14.19497087	      8.38002994	    135.04048358	     91.84871231
     10.42000000	     17.89024570	     -2.22963232	      0.17088342	     -0.51587175	      0.58348845	     -0.61348245	     69.22449369	     -3.17822626	      4.24838425	     99.40127634	      1.73487955	     12.91467769	     -9.92377164	     -7.49999987	     69.03519639	     -1.69474279	      5.17603823	    102.87381786	      1.79548684	     13.82575767	    -15.01472049	     -7.49999987	    -41.13106609	     -0.21184001	     -2.83833815	      3.10187911	    -14.33681784	      4.91824235	    135.98759374	    102.50350257	      5.76505728	    -14.06431041	      8.47625262	    135.16039462	     91.50869665
     10.43000000	     17.99549533	     -2.42934170	      0.48204728	     -0.51666462	      0.58317436	     -0.61404998	     69.08250281	     -3.35926083	      3.95543389	     99.35560600	      1.73408246	     12.98232541	    -10.04462398	     -7.49999987	     69.08179690	     -1.47393569	      5.47979096	    102.87201040	      1.79545529	     13.80403840	    -14.99034745	     -7.49999987	    -40.87407623	      0.17709518	     -2.86578233	      2.79379574	    -14.37061107	      5.02585143	    136.23315149	    100.95890358	      5.40184104	    -13.93581311	      8.71430148	    135.34447001	     90.36790455
     10.44000000	     18.09397166	     -2.48087188	      0.61933916	     -0.51734271	      0.58289796	     -0.61425865	     69.00986908	     -3.40938741	      3.89310681	     99.33515187	      1.73372546	     12.82745928	    -10.18849746	     -7.49999987	     69.09629298	     -1.35399570	      5.58431957	    102.86377580	      1.79531157	     13.35156257	    -15.34031804	     -7.49999987	    -40.61727208	      0.28872696	     -2.81419779	      2.46190530	    -14.30435024	      4.61470084	    135.89528947	    107.28175778	      5.10531306	    -13.79003798	      8.63550301	    134.63689171	     95.64099261
     10.45000000	     18.21726221	     -2.42588960	      0.65909935	     -0.51781406	      0.58283004	     -0.61426241	     68.91901484	     -3.41571817	      3.97327791	     99.34293178	      1.73386125	     12.75795118	    -10.16411664	     -7.49999987	     69.00509846	     -1.30913039	      5.54402624	    102.85421138	      1.79514464	     13.41116012	    -15.14260628	     -7.49999987	    -40.39667402	      0.25940132	     -2.82676224	      2.16049443	    -14.20074363	      4.70304371	    136.09200154	    105.50482264	      4.75640951	    -13.59274536	      8.63706294	    134.74707873	     94.57098770
     10.46000000	     18.42839866	     -2.35219654	      0.66914168	     -0.51839964	      0.58303118	     -0.61428081	     68.70767655	     -3.41990486	      4.05181639	     99.28459903	      1.73284315	     12.53978320	    -10.51293270	     -7.49999987	     68.77401978	     -1.28225042	      5.42839841	    102.78767073	      1.79398328	     13.06893473	    -15.64787463	     -7.49999987	    -40.31734362	      0.18391966	     -2.75825223	      1.97645236	    -14.18649978	      4.63433037	    136.00039024	    106.59320646	      4.67456781	    -13.35087837	      8.67264253	    134.52858247	     95.66154462
